<svg width="18" height="18" viewBox="0 0 18 18" fill="none" xmlns="http://www.w3.org/2000/svg">
<path d="M7.614 2.92482L3.528 7.82982H16.875C17.1734 7.82982 17.4595 7.94835 17.6705 8.15933C17.8815 8.37031 18 8.65646 18 8.95482C18 9.25319 17.8815 9.53934 17.6705 9.75032C17.4595 9.9613 17.1734 10.0798 16.875 10.0798H3.5262L7.614 14.9848C7.71277 15.0977 7.78797 15.2292 7.83516 15.3716C7.88235 15.514 7.90059 15.6644 7.88881 15.814C7.87702 15.9635 7.83544 16.1092 7.76652 16.2424C7.6976 16.3757 7.60273 16.4938 7.48749 16.5898C7.37225 16.6858 7.23897 16.7579 7.09549 16.8016C6.952 16.8454 6.80121 16.86 6.65199 16.8446C6.50278 16.8293 6.35814 16.7842 6.22659 16.7121C6.09504 16.64 5.97924 16.5423 5.886 16.4248L0.261 9.67482C0.2304 9.63882 0.2106 9.59742 0.189 9.55782C0.172586 9.52281 0.154567 9.48858 0.135 9.45522C0.1152 9.42642 0.0954 9.39582 0.081 9.36162C0.0297097 9.23333 0.00284859 9.09658 0.0018 8.95842V8.95662L0 8.95482V8.95122C0 8.81262 0.0306 8.67762 0.0828 8.54802C0.0954 8.51202 0.1152 8.48322 0.1332 8.45442L0.162 8.40762L0.1908 8.35362C0.2106 8.31222 0.2304 8.27082 0.261 8.23482L5.886 1.48482C5.97924 1.36731 6.09504 1.26963 6.22659 1.19754C6.35814 1.12544 6.50278 1.08038 6.65199 1.06501C6.80121 1.04963 6.952 1.06426 7.09549 1.10802C7.23897 1.15178 7.37225 1.2238 7.48749 1.31983C7.60273 1.41587 7.6976 1.53398 7.76652 1.66722C7.83544 1.80046 7.87702 1.94614 7.88881 2.09568C7.90059 2.24523 7.88235 2.39562 7.83516 2.53801C7.78797 2.68041 7.71277 2.81192 7.614 2.92482Z" fill="black"/>
</svg>
