<svg width="18" height="18" viewBox="0 0 18 18" fill="none" xmlns="http://www.w3.org/2000/svg">
<g clip-path="url(#clip0_3_1424)">
<path d="M10.386 15.0752L14.472 10.1702L1.125 10.1702C0.826632 10.1702 0.540482 10.0516 0.329504 9.84067C0.118526 9.62969 0 9.34354 0 9.04518C0 8.74681 0.118526 8.46066 0.329504 8.24968C0.540482 8.0387 0.826632 7.92018 1.125 7.92018L14.4738 7.92018L10.386 3.01518C10.2872 2.90227 10.212 2.77076 10.1648 2.62837C10.1176 2.48597 10.0994 2.33558 10.1112 2.18603C10.123 2.03649 10.1646 1.89081 10.2335 1.75757C10.3024 1.62433 10.3973 1.50622 10.5125 1.41018C10.6277 1.31415 10.761 1.24214 10.9045 1.19837C11.048 1.15461 11.1988 1.13998 11.348 1.15536C11.4972 1.17073 11.6419 1.21579 11.7734 1.28789C11.905 1.35999 12.0208 1.45766 12.114 1.57518L17.739 8.32518C17.7696 8.36118 17.7894 8.40258 17.811 8.44218C17.8274 8.47719 17.8454 8.51142 17.865 8.54478C17.8848 8.57358 17.9046 8.60418 17.919 8.63838C17.9703 8.76667 17.9972 8.90342 17.9982 9.04158V9.04338L18 9.04518V9.04878C18 9.18738 17.9694 9.32238 17.9172 9.45198C17.9046 9.48798 17.8848 9.51678 17.8668 9.54558L17.838 9.59238L17.8092 9.64638C17.7894 9.68778 17.7696 9.72918 17.739 9.76518L12.114 16.5152C12.0208 16.6327 11.905 16.7304 11.7734 16.8025C11.6419 16.8746 11.4972 16.9196 11.348 16.935C11.1988 16.9504 11.048 16.9357 10.9045 16.892C10.761 16.8482 10.6277 16.7762 10.5125 16.6802C10.3973 16.5841 10.3024 16.466 10.2335 16.3328C10.1646 16.1995 10.123 16.0539 10.1112 15.9043C10.0994 15.7548 10.1176 15.6044 10.1648 15.462C10.212 15.3196 10.2872 15.1881 10.386 15.0752Z" fill="black"/>
</g>
<defs>
<clipPath id="clip0_3_1424">
<rect width="18" height="18" fill="white"/>
</clipPath>
</defs>
</svg>
