<svg width="32" height="32" viewBox="0 0 32 32" fill="none" xmlns="http://www.w3.org/2000/svg">
<path fill-rule="evenodd" clip-rule="evenodd" d="M26.0201 12.7201C26.0201 19.8401 20.4201 27.3201 10.7601 27.3201C8.52676 27.3207 6.32327 26.8074 4.32006 25.8201C3.80006 25.5801 3.94006 24.8201 4.52006 24.7001C7.04006 24.3001 9.32006 23.3001 10.4601 21.6401C3.78006 17.7601 3.90006 11.0001 4.26006 8.24014C4.34006 7.74014 4.94006 7.54014 5.26006 7.90014C7.78006 10.8201 10.8601 12.9201 15.3201 12.6201C14.9201 10.7401 15.4801 8.78014 16.8401 7.46014C17.3375 6.97445 17.928 6.59429 18.576 6.34249C19.2241 6.09069 19.9163 5.97245 20.6112 5.99487C21.3061 6.01729 21.9893 6.17989 22.6197 6.47293C23.2502 6.76597 23.8149 7.18339 24.2801 7.70014C24.8001 8.30014 25.9801 8.74014 27.1601 8.20014C27.6201 8.00014 28.1001 8.40014 27.9801 8.88014C27.5401 10.7201 26.6601 11.8401 26.2401 12.3801C26.1001 12.5601 26.0201 12.6601 26.0201 12.7201Z" fill="black"/>
</svg>
